<mxfile host="Electron" modified="2023-06-02T15:21:41.174Z" agent="Mozilla/5.0 (Macintosh; Intel Mac OS X 10_15_7) AppleWebKit/537.36 (KHTML, like Gecko) draw.io/21.2.8 Chrome/112.0.5615.165 Electron/24.2.0 Safari/537.36" etag="u3zIj2x7Pvyw9KHH7ndz" version="21.2.8" type="device">
  <diagram name="PÃ¡gina-1" id="g6DB_LPt3vSaLmvPiGrx">
    <mxGraphModel dx="794" dy="627" grid="1" gridSize="10" guides="1" tooltips="1" connect="1" arrows="1" fold="1" page="1" pageScale="1" pageWidth="827" pageHeight="1169" math="0" shadow="0">
      <root>
        <mxCell id="0" />
        <mxCell id="1" parent="0" />
        <mxCell id="-V-VsHOgSCsdEdVh3qE7-19" value="" style="rounded=0;whiteSpace=wrap;html=1;fillColor=none;strokeColor=#192ed2;dashed=1;dashPattern=8 8;strokeWidth=2;" vertex="1" parent="1">
          <mxGeometry x="20" y="50" width="285.78" height="400" as="geometry" />
        </mxCell>
        <mxCell id="-V-VsHOgSCsdEdVh3qE7-9" style="edgeStyle=orthogonalEdgeStyle;rounded=0;orthogonalLoop=1;jettySize=auto;html=1;entryX=0;entryY=0.5;entryDx=0;entryDy=0;entryPerimeter=0;" edge="1" parent="1" source="-V-VsHOgSCsdEdVh3qE7-1" target="-V-VsHOgSCsdEdVh3qE7-5">
          <mxGeometry relative="1" as="geometry" />
        </mxCell>
        <mxCell id="-V-VsHOgSCsdEdVh3qE7-1" value="" style="image;sketch=0;aspect=fixed;html=1;points=[];align=center;fontSize=12;image=img/lib/mscae/Database_General.svg;" vertex="1" parent="1">
          <mxGeometry x="72.98" y="140" width="45.6" height="60" as="geometry" />
        </mxCell>
        <mxCell id="-V-VsHOgSCsdEdVh3qE7-26" style="edgeStyle=orthogonalEdgeStyle;rounded=0;orthogonalLoop=1;jettySize=auto;html=1;exitX=0;exitY=0.5;exitDx=0;exitDy=0;exitPerimeter=0;entryX=0.875;entryY=0.5;entryDx=0;entryDy=0;entryPerimeter=0;endArrow=none;endFill=0;" edge="1" parent="1" source="-V-VsHOgSCsdEdVh3qE7-4" target="-V-VsHOgSCsdEdVh3qE7-20">
          <mxGeometry relative="1" as="geometry">
            <Array as="points">
              <mxPoint x="594" y="122" />
              <mxPoint x="594" y="246" />
            </Array>
          </mxGeometry>
        </mxCell>
        <mxCell id="-V-VsHOgSCsdEdVh3qE7-4" value="" style="sketch=0;pointerEvents=1;shadow=0;dashed=0;html=1;strokeColor=none;labelPosition=center;verticalLabelPosition=bottom;verticalAlign=top;align=center;fillColor=#515151;shape=mxgraph.mscae.system_center.admin_console" vertex="1" parent="1">
          <mxGeometry x="654" y="104" width="50" height="36" as="geometry" />
        </mxCell>
        <mxCell id="-V-VsHOgSCsdEdVh3qE7-6" value="" style="image;sketch=0;aspect=fixed;html=1;points=[];align=center;fontSize=12;image=img/lib/mscae/Docker.svg;" vertex="1" parent="1">
          <mxGeometry x="121.99999999999997" y="60" width="60.98" height="50" as="geometry" />
        </mxCell>
        <mxCell id="-V-VsHOgSCsdEdVh3qE7-10" style="edgeStyle=orthogonalEdgeStyle;rounded=0;orthogonalLoop=1;jettySize=auto;html=1;" edge="1" parent="1" source="-V-VsHOgSCsdEdVh3qE7-5">
          <mxGeometry relative="1" as="geometry">
            <mxPoint x="222.98000000000002" y="260" as="targetPoint" />
            <Array as="points">
              <mxPoint x="217" y="325" />
              <mxPoint x="224" y="325" />
            </Array>
          </mxGeometry>
        </mxCell>
        <mxCell id="-V-VsHOgSCsdEdVh3qE7-7" value="" style="image;sketch=0;aspect=fixed;html=1;points=[];align=center;fontSize=12;image=img/lib/mscae/Database_General.svg;" vertex="1" parent="1">
          <mxGeometry x="72.98" y="230" width="45.6" height="60" as="geometry" />
        </mxCell>
        <mxCell id="-V-VsHOgSCsdEdVh3qE7-11" style="edgeStyle=orthogonalEdgeStyle;rounded=0;orthogonalLoop=1;jettySize=auto;html=1;entryX=0;entryY=0.5;entryDx=0;entryDy=0;entryPerimeter=0;" edge="1" parent="1" source="-V-VsHOgSCsdEdVh3qE7-8" target="-V-VsHOgSCsdEdVh3qE7-5">
          <mxGeometry relative="1" as="geometry" />
        </mxCell>
        <mxCell id="-V-VsHOgSCsdEdVh3qE7-8" value="" style="image;sketch=0;aspect=fixed;html=1;points=[];align=center;fontSize=12;image=img/lib/mscae/Database_General.svg;" vertex="1" parent="1">
          <mxGeometry x="72.98" y="320" width="45.6" height="60" as="geometry" />
        </mxCell>
        <mxCell id="-V-VsHOgSCsdEdVh3qE7-12" value="" style="edgeStyle=orthogonalEdgeStyle;rounded=0;orthogonalLoop=1;jettySize=auto;html=1;" edge="1" parent="1" source="-V-VsHOgSCsdEdVh3qE7-7" target="-V-VsHOgSCsdEdVh3qE7-5">
          <mxGeometry relative="1" as="geometry">
            <mxPoint x="222.98000000000002" y="260" as="targetPoint" />
            <mxPoint x="118.97999999999999" y="260" as="sourcePoint" />
          </mxGeometry>
        </mxCell>
        <mxCell id="-V-VsHOgSCsdEdVh3qE7-5" value="" style="sketch=0;pointerEvents=1;shadow=0;dashed=0;html=1;strokeColor=none;labelPosition=center;verticalLabelPosition=bottom;verticalAlign=top;align=center;fillColor=#515151;shape=mxgraph.mscae.enterprise.database_server" vertex="1" parent="1">
          <mxGeometry x="182.98" y="215" width="68" height="90" as="geometry" />
        </mxCell>
        <mxCell id="-V-VsHOgSCsdEdVh3qE7-14" value="" style="rounded=0;whiteSpace=wrap;html=1;fillColor=none;strokeColor=#b85450;dashed=1;dashPattern=8 8;strokeWidth=2;" vertex="1" parent="1">
          <mxGeometry x="50.78" y="130" width="90" height="260" as="geometry" />
        </mxCell>
        <mxCell id="-V-VsHOgSCsdEdVh3qE7-16" value="" style="rounded=0;whiteSpace=wrap;html=1;fillColor=none;strokeColor=#82b366;dashed=1;dashPattern=8 8;strokeWidth=2;" vertex="1" parent="1">
          <mxGeometry x="160.98" y="130" width="102" height="260" as="geometry" />
        </mxCell>
        <mxCell id="-V-VsHOgSCsdEdVh3qE7-17" value="Data Base (MySQL)&lt;br&gt;container&lt;br&gt;&amp;nbsp;(localhost:5050)" style="text;html=1;align=center;verticalAlign=middle;resizable=0;points=[];autosize=1;strokeColor=none;fillColor=none;" vertex="1" parent="1">
          <mxGeometry x="30.98" y="390" width="130" height="60" as="geometry" />
        </mxCell>
        <mxCell id="-V-VsHOgSCsdEdVh3qE7-18" value="MQTT (EMQX)&lt;br&gt;&amp;nbsp;container&lt;br&gt;(localhost:38083)&amp;nbsp;" style="text;html=1;align=center;verticalAlign=middle;resizable=0;points=[];autosize=1;strokeColor=none;fillColor=none;" vertex="1" parent="1">
          <mxGeometry x="151.98" y="390" width="120" height="60" as="geometry" />
        </mxCell>
        <mxCell id="-V-VsHOgSCsdEdVh3qE7-21" style="edgeStyle=orthogonalEdgeStyle;rounded=0;orthogonalLoop=1;jettySize=auto;html=1;exitX=0.16;exitY=0.55;exitDx=0;exitDy=0;exitPerimeter=0;entryX=1;entryY=0.5;entryDx=0;entryDy=0;endArrow=none;endFill=0;" edge="1" parent="1" source="-V-VsHOgSCsdEdVh3qE7-20" target="-V-VsHOgSCsdEdVh3qE7-19">
          <mxGeometry relative="1" as="geometry" />
        </mxCell>
        <mxCell id="-V-VsHOgSCsdEdVh3qE7-20" value="&lt;b&gt;INTERNET&lt;/b&gt;" style="ellipse;shape=cloud;whiteSpace=wrap;html=1;fillColor=#fff2cc;strokeColor=#d6b656;" vertex="1" parent="1">
          <mxGeometry x="440" y="206" width="120" height="80" as="geometry" />
        </mxCell>
        <mxCell id="-V-VsHOgSCsdEdVh3qE7-27" style="edgeStyle=orthogonalEdgeStyle;rounded=0;orthogonalLoop=1;jettySize=auto;html=1;entryX=0.875;entryY=0.5;entryDx=0;entryDy=0;entryPerimeter=0;endArrow=none;endFill=0;" edge="1" parent="1" source="-V-VsHOgSCsdEdVh3qE7-22" target="-V-VsHOgSCsdEdVh3qE7-20">
          <mxGeometry relative="1" as="geometry">
            <Array as="points">
              <mxPoint x="594" y="197" />
              <mxPoint x="594" y="246" />
            </Array>
          </mxGeometry>
        </mxCell>
        <mxCell id="-V-VsHOgSCsdEdVh3qE7-22" value="" style="sketch=0;pointerEvents=1;shadow=0;dashed=0;html=1;strokeColor=none;labelPosition=center;verticalLabelPosition=bottom;verticalAlign=top;align=center;fillColor=#515151;shape=mxgraph.mscae.system_center.admin_console" vertex="1" parent="1">
          <mxGeometry x="654" y="184" width="50" height="36" as="geometry" />
        </mxCell>
        <mxCell id="-V-VsHOgSCsdEdVh3qE7-29" style="edgeStyle=orthogonalEdgeStyle;rounded=0;orthogonalLoop=1;jettySize=auto;html=1;exitX=0;exitY=0.5;exitDx=0;exitDy=0;exitPerimeter=0;entryX=0.875;entryY=0.5;entryDx=0;entryDy=0;entryPerimeter=0;endArrow=none;endFill=0;" edge="1" parent="1" source="-V-VsHOgSCsdEdVh3qE7-23" target="-V-VsHOgSCsdEdVh3qE7-20">
          <mxGeometry relative="1" as="geometry">
            <Array as="points">
              <mxPoint x="594" y="287" />
              <mxPoint x="594" y="246" />
            </Array>
          </mxGeometry>
        </mxCell>
        <mxCell id="-V-VsHOgSCsdEdVh3qE7-23" value="" style="sketch=0;pointerEvents=1;shadow=0;dashed=0;html=1;strokeColor=none;labelPosition=center;verticalLabelPosition=bottom;verticalAlign=top;align=center;fillColor=#515151;shape=mxgraph.mscae.system_center.admin_console" vertex="1" parent="1">
          <mxGeometry x="654" y="269" width="50" height="36" as="geometry" />
        </mxCell>
        <mxCell id="-V-VsHOgSCsdEdVh3qE7-31" style="edgeStyle=orthogonalEdgeStyle;rounded=0;orthogonalLoop=1;jettySize=auto;html=1;exitX=0;exitY=0.5;exitDx=0;exitDy=0;exitPerimeter=0;entryX=0.875;entryY=0.5;entryDx=0;entryDy=0;entryPerimeter=0;endArrow=none;endFill=0;" edge="1" parent="1" source="-V-VsHOgSCsdEdVh3qE7-24" target="-V-VsHOgSCsdEdVh3qE7-20">
          <mxGeometry relative="1" as="geometry">
            <Array as="points">
              <mxPoint x="594" y="362" />
              <mxPoint x="594" y="246" />
            </Array>
          </mxGeometry>
        </mxCell>
        <mxCell id="-V-VsHOgSCsdEdVh3qE7-24" value="" style="sketch=0;pointerEvents=1;shadow=0;dashed=0;html=1;strokeColor=none;labelPosition=center;verticalLabelPosition=bottom;verticalAlign=top;align=center;fillColor=#515151;shape=mxgraph.mscae.system_center.admin_console" vertex="1" parent="1">
          <mxGeometry x="654" y="344" width="50" height="36" as="geometry" />
        </mxCell>
        <mxCell id="-V-VsHOgSCsdEdVh3qE7-34" value="U1 subscribed to T1" style="text;html=1;align=center;verticalAlign=middle;resizable=0;points=[];autosize=1;strokeColor=none;fillColor=none;" vertex="1" parent="1">
          <mxGeometry x="614" y="140" width="130" height="30" as="geometry" />
        </mxCell>
        <mxCell id="-V-VsHOgSCsdEdVh3qE7-35" value="U2 subscribed to T1 and T2" style="text;html=1;align=center;verticalAlign=middle;resizable=0;points=[];autosize=1;strokeColor=none;fillColor=none;" vertex="1" parent="1">
          <mxGeometry x="604" y="220" width="170" height="30" as="geometry" />
        </mxCell>
        <mxCell id="-V-VsHOgSCsdEdVh3qE7-36" value="U3 subscribed to T2" style="text;html=1;align=center;verticalAlign=middle;resizable=0;points=[];autosize=1;strokeColor=none;fillColor=none;" vertex="1" parent="1">
          <mxGeometry x="614" y="300" width="130" height="30" as="geometry" />
        </mxCell>
        <mxCell id="-V-VsHOgSCsdEdVh3qE7-37" value="U4 subscribed to T1, T2 and T3" style="text;html=1;align=center;verticalAlign=middle;resizable=0;points=[];autosize=1;strokeColor=none;fillColor=none;" vertex="1" parent="1">
          <mxGeometry x="584" y="380" width="190" height="30" as="geometry" />
        </mxCell>
        <mxCell id="-V-VsHOgSCsdEdVh3qE7-39" value="" style="curved=1;endArrow=classic;html=1;rounded=0;fillColor=#f8cecc;strokeColor=#b85450;startArrow=classic;startFill=1;" edge="1" parent="1">
          <mxGeometry width="50" height="50" relative="1" as="geometry">
            <mxPoint x="330" y="240" as="sourcePoint" />
            <mxPoint x="644" y="120" as="targetPoint" />
            <Array as="points">
              <mxPoint x="525" y="234" />
              <mxPoint x="544" y="200" />
              <mxPoint x="504" y="190" />
              <mxPoint x="574" y="120" />
            </Array>
          </mxGeometry>
        </mxCell>
        <mxCell id="-V-VsHOgSCsdEdVh3qE7-40" value="" style="curved=1;endArrow=classic;html=1;rounded=0;fillColor=#f8cecc;strokeColor=#b85450;startArrow=classic;startFill=1;" edge="1" parent="1">
          <mxGeometry width="50" height="50" relative="1" as="geometry">
            <mxPoint x="340" y="250" as="sourcePoint" />
            <mxPoint x="644" y="190" as="targetPoint" />
            <Array as="points">
              <mxPoint x="535" y="244" />
              <mxPoint x="584" y="210" />
              <mxPoint x="535" y="200" />
              <mxPoint x="594" y="170" />
            </Array>
          </mxGeometry>
        </mxCell>
        <mxCell id="-V-VsHOgSCsdEdVh3qE7-42" value="" style="curved=1;endArrow=classic;html=1;rounded=0;fillColor=#f8cecc;strokeColor=#b85450;startArrow=classic;startFill=1;" edge="1" parent="1">
          <mxGeometry width="50" height="50" relative="1" as="geometry">
            <mxPoint x="330" y="256" as="sourcePoint" />
            <mxPoint x="634" y="350" as="targetPoint" />
            <Array as="points">
              <mxPoint x="464" y="260" />
              <mxPoint x="464" y="270" />
              <mxPoint x="514" y="330" />
              <mxPoint x="524" y="280" />
            </Array>
          </mxGeometry>
        </mxCell>
        <mxCell id="-V-VsHOgSCsdEdVh3qE7-43" value="" style="curved=1;endArrow=classic;html=1;rounded=0;fillColor=#f8cecc;strokeColor=#6251b8;startArrow=classic;startFill=1;" edge="1" parent="1">
          <mxGeometry width="50" height="50" relative="1" as="geometry">
            <mxPoint x="330" y="254" as="sourcePoint" />
            <mxPoint x="654" y="200" as="targetPoint" />
            <Array as="points">
              <mxPoint x="545" y="254" />
              <mxPoint x="594" y="220" />
              <mxPoint x="545" y="210" />
              <mxPoint x="604" y="180" />
            </Array>
          </mxGeometry>
        </mxCell>
        <mxCell id="-V-VsHOgSCsdEdVh3qE7-44" value="" style="curved=1;endArrow=classic;html=1;rounded=0;fillColor=#f8cecc;strokeColor=#6251B8;startArrow=classic;startFill=1;" edge="1" parent="1">
          <mxGeometry width="50" height="50" relative="1" as="geometry">
            <mxPoint x="320" y="260" as="sourcePoint" />
            <mxPoint x="634" y="363" as="targetPoint" />
            <Array as="points">
              <mxPoint x="464" y="273" />
              <mxPoint x="464" y="283" />
              <mxPoint x="514" y="343" />
              <mxPoint x="524" y="293" />
            </Array>
          </mxGeometry>
        </mxCell>
        <mxCell id="-V-VsHOgSCsdEdVh3qE7-45" value="" style="curved=1;endArrow=classic;html=1;rounded=0;fillColor=#f8cecc;strokeColor=#6251b8;startArrow=classic;startFill=1;" edge="1" parent="1">
          <mxGeometry width="50" height="50" relative="1" as="geometry">
            <mxPoint x="330" y="270" as="sourcePoint" />
            <mxPoint x="644" y="280" as="targetPoint" />
            <Array as="points">
              <mxPoint x="534" y="260" />
              <mxPoint x="574" y="264" />
              <mxPoint x="594" y="290" />
            </Array>
          </mxGeometry>
        </mxCell>
        <mxCell id="-V-VsHOgSCsdEdVh3qE7-46" value="" style="curved=1;endArrow=classic;html=1;rounded=0;fillColor=#f8cecc;strokeColor=#70b851;startArrow=classic;startFill=1;" edge="1" parent="1">
          <mxGeometry width="50" height="50" relative="1" as="geometry">
            <mxPoint x="330" y="280" as="sourcePoint" />
            <mxPoint x="634" y="373" as="targetPoint" />
            <Array as="points">
              <mxPoint x="464" y="283" />
              <mxPoint x="464" y="293" />
              <mxPoint x="514" y="353" />
              <mxPoint x="524" y="303" />
            </Array>
          </mxGeometry>
        </mxCell>
        <mxCell id="-V-VsHOgSCsdEdVh3qE7-47" value="&lt;font color=&quot;#b85450&quot;&gt;Topic 1 (T1)&lt;/font&gt;" style="text;html=1;align=center;verticalAlign=middle;resizable=0;points=[];autosize=1;strokeColor=none;fillColor=none;" vertex="1" parent="1">
          <mxGeometry x="455" y="370" width="90" height="30" as="geometry" />
        </mxCell>
        <mxCell id="-V-VsHOgSCsdEdVh3qE7-48" value="&lt;font color=&quot;#6251b8&quot;&gt;Topic 2 (T2)&lt;/font&gt;" style="text;html=1;align=center;verticalAlign=middle;resizable=0;points=[];autosize=1;strokeColor=none;fillColor=none;" vertex="1" parent="1">
          <mxGeometry x="455" y="395" width="90" height="30" as="geometry" />
        </mxCell>
        <mxCell id="-V-VsHOgSCsdEdVh3qE7-49" value="&lt;font color=&quot;#70b851&quot;&gt;Topic 3 (T3)&lt;/font&gt;" style="text;html=1;align=center;verticalAlign=middle;resizable=0;points=[];autosize=1;strokeColor=none;fillColor=none;" vertex="1" parent="1">
          <mxGeometry x="455" y="420" width="90" height="30" as="geometry" />
        </mxCell>
        <mxCell id="-V-VsHOgSCsdEdVh3qE7-50" value="&lt;b&gt;SERVER&lt;/b&gt;" style="text;html=1;align=center;verticalAlign=middle;resizable=0;points=[];autosize=1;strokeColor=none;fillColor=none;" vertex="1" parent="1">
          <mxGeometry x="117.49" y="20" width="70" height="30" as="geometry" />
        </mxCell>
        <mxCell id="-V-VsHOgSCsdEdVh3qE7-51" value="NAT transversal" style="text;html=1;align=center;verticalAlign=middle;resizable=0;points=[];autosize=1;strokeColor=none;fillColor=none;" vertex="1" parent="1">
          <mxGeometry x="300" y="286" width="110" height="30" as="geometry" />
        </mxCell>
      </root>
    </mxGraphModel>
  </diagram>
</mxfile>
